<?xml version="1.0" encoding="UTF-8" standalone="no"?>
<!-- Created with Inkscape (http://www.inkscape.org/) -->

<svg
   xmlns:dc="http://purl.org/dc/elements/1.1/"
   xmlns:cc="http://creativecommons.org/ns#"
   xmlns:rdf="http://www.w3.org/1999/02/22-rdf-syntax-ns#"
   xmlns:svg="http://www.w3.org/2000/svg"
   xmlns="http://www.w3.org/2000/svg"
   xmlns:sodipodi="http://sodipodi.sourceforge.net/DTD/sodipodi-0.dtd"
   xmlns:inkscape="http://www.inkscape.org/namespaces/inkscape"
   width="91.260582mm"
   height="94.412842mm"
   viewBox="0 0 323.36427 334.53369"
   id="svg2"
   version="1.1"
   inkscape:version="0.91 r13725"
   sodipodi:docname="latin capital letter ay.svg">
  <defs
     id="defs4" />
  <sodipodi:namedview
     id="base"
     pagecolor="#ffffff"
     bordercolor="#666666"
     borderopacity="1.0"
     inkscape:pageopacity="0.0"
     inkscape:pageshadow="2"
     inkscape:zoom="0.35"
     inkscape:cx="43.95194"
     inkscape:cy="-32.437585"
     inkscape:document-units="px"
     inkscape:current-layer="layer1"
     showgrid="false"
     fit-margin-top="0"
     fit-margin-left="0"
     fit-margin-right="0"
     fit-margin-bottom="0"
     inkscape:window-width="1366"
     inkscape:window-height="705"
     inkscape:window-x="-8"
     inkscape:window-y="-8"
     inkscape:window-maximized="1" />
  <metadata
     id="metadata7">
    <rdf:RDF>
      <cc:Work
         rdf:about="">
        <dc:format>image/svg+xml</dc:format>
        <dc:type
           rdf:resource="http://purl.org/dc/dcmitype/StillImage" />
        <dc:title></dc:title>
      </cc:Work>
    </rdf:RDF>
  </metadata>
  <g
     inkscape:label="Layer 1"
     inkscape:groupmode="layer"
     id="layer1"
     transform="translate(-331.04806,-165.39093)">
    <g
       style="font-style:normal;font-weight:normal;font-size:375px;line-height:125%;font-family:sans-serif;letter-spacing:0px;word-spacing:0px;fill:#000000;fill-opacity:1;stroke:none;stroke-width:1px;stroke-linecap:butt;stroke-linejoin:miter;stroke-opacity:1"
       id="text3336">
      <path
         d="m 654.41232,180.03937 q -20.87403,0 -29.47999,8.97217 -3.84521,4.02832 -9.33837,19.40918 l -68.11524,192.62695 q -14.28222,40.64941 -26.36719,61.15723 -22.15576,37.71972 -48.33984,37.71972 -11.16943,0 -18.85986,-5.67627 -8.60596,-6.04248 -9.15528,-16.8457 l -0.73242,-1.64795 q 0,-6.95801 6.5918,-11.71875 5.85937,-4.39453 13.18359,-4.39453 4.57764,0 13.00049,3.66211 8.60596,3.84521 13.3667,3.84521 11.16943,0 22.15576,-22.33886 3.47901,-7.32422 12.63428,-32.59278 l -29.84619,-73.24219 -93.75,0 q -6.40869,14.28223 -12.81739,28.56446 -7.69042,18.67676 -7.69042,29.66308 0,12.45118 25.26855,12.08496 l 0,8.78907 -75.07324,0 0,-8.78907 q 15.74707,-3.29589 26.55029,-19.77539 4.76074,-7.32421 15.01465,-31.12793 l 81.84814,-192.99316 8.60596,0 82.21436,190.61279 40.10009,-111.32812 q 16.84571,-46.875 16.84571,-56.39649 0,-8.42285 -22.70508,-8.23974 l 0,-10.43701 74.89014,0 0,10.43701 z m -166.07666,141.54053 -39.55079,-95.21485 -39.91699,95.21485 79.46778,0 z"
         style="font-style:normal;font-variant:normal;font-weight:normal;font-stretch:normal;font-family:Universalia;-inkscape-font-specification:Universalia"
         id="path3343"
         inkscape:connector-curvature="0" />
    </g>
  </g>
</svg>
