<?xml version="1.0" encoding="UTF-8"?>
<svg id="Layer_1" data-name="Layer 1" xmlns="http://www.w3.org/2000/svg" viewBox="0 0 200 200">
  <defs>
    <style>
      .cls-1 {
        fill: #673ab6;
      }
    </style>
  </defs>
  <path class="cls-1" d="M134.04,90.44c.05-.09,.05-.12,.05-.13,.02-.02,.03-.04,.04-.05,15.36-17.56,30.73-35.13,46.09-52.69,.05-.05,.1-.13,.14-.19,0,0,0-.04,0-.05s0-.03-.03-.08c0,0,0-.02,0-.03h-.5c-6.69,0-13.36,0-20.05,0-.11,0-.21,0-.3,.04-.24,.04-.43,.16-.62,.38-3.37,3.87-6.75,7.72-10.12,11.58-8.06,9.21-16.12,18.44-24.19,27.65-.13,.14-.26,.28-.41,.44-.15-.19-.29-.34-.4-.49-4.44-5.88-8.87-11.74-13.32-17.61-5.3-7.02-10.62-14.89-15.9-21.95H49.38L11.33,161.47c-.2,.64,.28,1.29,.95,1.29H28.55c.43,0,.82-.29,.95-.7l17.03-55.04h56.69l2.2,2.86,7.32,9.56c5.36,7.01,10.73,14.03,16.1,21.05,5.57,7.29,11.15,14.58,16.72,21.87,.22,.29,.43,.44,.83,.44,13.94,0,27.88,0,41.82,0,.13,0,.26-.02,.51-.04-18.27-24.17-36.5-48.25-54.68-72.3Zm-83.15,2.47l11.98-38.69c9.88,12.93,19.71,25.78,29.59,38.69H50.89Zm111.94,57.08c-3.51,0-7.02,0-10.53,0-.4,0-.65-.11-.9-.43-11.69-15.31-23.39-30.6-35.09-45.91-13.12-17.15-26.23-34.3-39.35-51.45-.59-.78-1.2-1.56-1.78-2.33-.12-.15-.22-.31-.41-.58h.73c3.75,0,7.5,0,11.25,0,.46,0,.76,.12,1.04,.5,7.6,10.08,15.22,20.14,22.83,30.21,11.64,15.4,23.28,30.79,34.92,46.18,5.86,7.75,11.72,15.49,17.57,23.24,.12,.15,.22,.31,.37,.53-.26,.02-.46,.04-.65,.04Z"/>
</svg>